<svg width="29" height="28" fill="none" xmlns="http://www.w3.org/2000/svg">
<symbol id="floppy">
<g fill="currentColor">
<path d="M.5 0h2.2v2.2H.5zM.5 2.2h2.2v2.2H.5z"/>
<path d="M.5 4.3h2.2v2.2H.5zM.5 6.5h2.2v2.2H.5z"/>
<path d="M.5 8.6h2.2v2.2H.5zM.5 10.8h2.2V13H.5z"/>
<path d="M.5 12.9h2.2v2.2H.5z"/>
<path d="M.5 15.1h2.2v2.2H.5z"/>
<path d="M.5 17.2h2.2v2.2H.5zM.5 19.4h2.2v2.2H.5z"/>
<path d="M.5 21.5h2.2v2.2H.5zM.5 23.7h2.2v2.2H.5z"/>
<path d="M.5 25.8h2.2V28H.5zM24.2 0v2.2H22V0zM22 0v2.2h-2.2V0z"/>
<path d="M19.9 0v2.2h-2.2V0zM17.7 0v2.2h-2.2V0z"/>
<path d="M15.6 0v2.2h-2.2V0z"/>
<path d="M13.4 0v2.2h-2.2V0z"/>
<path d="M11.3 0v2.2H9V0z"/>
<path d="M9.1 0v2.2H7V0zM7 0v2.2H4.8V0zM4.8 0v2.2H2.6V0zM26.3 2.1v2.2h-2.2V2.1zM7 4.3v2.2H4.8V4.3z"/>
<path d="M7 2.2v2.2H4.6V2.2zM7 6.5v2.2H4.6V6.5zM22 4.3v2.2h-2.2V4.3z"/>
<path d="M22 2.1v2.2h-2.2V2.1zM22 6.4v2.2h-2.2V6.4zM17.7 4.3v2.2h-2.2V4.3z"/>
<path d="M17.7 2.1v2.2h-2.2V2.1zM17.7 6.4v2.2h-2.2V6.4zM22 8.6v2.2H20V8.6zM19.9 8.6v2.2h-2.2V8.6z"/>
<path d="M17.7 8.6v2.2h-2.2V8.6z"/>
<path d="M15.6 8.6v2.2h-2.2V8.6z"/>
<path d="M13.4 8.6v2.2h-2.2V8.6z"/>
<path d="M11.3 8.6v2.2H9V8.6z"/>
<path d="M9.1 8.6v2.2H7V8.6zM7 8.7v2.2H4.8V8.7zM24.2 15v2.3H22V15zM22 15v2.2h-2.2V15z"/>
<path d="M19.9 15v2.3h-2.2V15zM17.7 15v2.2h-2.2V15z"/>
<path d="M15.6 15.1v2.2h-2.2v-2.2z"/>
<path d="M13.4 15v2.3h-2.2V15zM11.2 15.1v2.2H9v-2.2zM9 15v2.3H7V15zM7 15.1v2.2H4.6v-2.2zM24.2 17.2v2.2H22v-2.2zM7 17.3v2.2H4.8v-2.2zM24.2 19.4v2.2H22v-2.2z"/>
<path d="M7 19.4v2.2H4.6v-2.2zM24.2 21.5v2.2H22v-2.2zM7 21.6v2.2H4.8v-2.2z"/>
<path d="M7 23.7V26H4.8v-2.2zM24.2 23.7v2.2H22v-2.2zM26.4 25.8V28h-2.2v-2.2z"/>
<path d="M24.2 25.9V28H22v-2.2zM22 25.8V28H20v-2.2zM20 25.9V28h-2.3v-2.2z"/>
<path d="M17.8 25.8V28h-2.2v-2.2zM15.6 25.9V28h-2.2v-2.2z"/>
<path d="M13.5 25.8V28h-2.2v-2.2zM11.3 25.9V28H9.1v-2.2z"/>
<path d="M9.2 25.8V28H7v-2.2zM7 25.9V28H4.8v-2.2z"/>
<path d="M4.9 25.8V28H2.7v-2.2zM28.5 28h-2.2v-2.2h2.2z"/>
<path d="M28.5 25.9h-2.2v-2.2h2.2zM28.5 23.7h-2.2v-2.2h2.2z"/>
<path d="M28.5 21.6h-2.2v-2.2h2.2zM28.5 19.4h-2.2v-2.2h2.2z"/>
<path d="M28.5 17.3h-2.2V15h2.2zM28.5 15h-2.2V13h2.2zM28.5 13h-2.2v-2.3h2.2zM28.5 10.7h-2.2V8.5h2.2z"/>
<path d="M28.5 8.6h-2.2V6.4h2.2zM28.5 6.4h-2.2V4.2h2.2z"/>
</g>
</symbol>
</svg>